# xmcd
#
# Track frame offsets: 
#        150
#        17090
#        43268
#        66355
#        77920
#        97310
#        118783
#        131253
#        177288
#
# Disc length: 2543 seconds
#
# Revision: 2
# Processed by: cddbd v1.5.2PL0 Copyright (c) Steve Scherf et al.
# Submitted via: ExactAudioCopyFreeDBPlugin 1.0
#
DISCID=7e09ed09
DTITLE=B. B. King - Back In The Alley
DYEAR=1971
DGENRE=Blues
TTITLE0=Sweet Little Angel
TTITLE1=Watch Yourself
TTITLE2=Don't Answer The Dorr
TTITLE3=Paying The Cost To Be The Boss
TTITLE4=Sweet Sixteen
TTITLE5=Gambler's Blues
TTITLE6=I'm Gonna Do What They Do To Me
TTITLE7=Lucille
TTITLE8=Please Love Me
EXTD=
EXTT0=
EXTT1=
EXTT2=
EXTT3=
EXTT4=
EXTT5=
EXTT6=
EXTT7=
EXTT8=
PLAYORDER=
